<svg xmlns="http://www.w3.org/2000/svg" viewBox="0 0 960 720" role="img" aria-label="Security illustration">
  <defs>
    <linearGradient id="cardFill" x1="0" y1="0" x2="0" y2="1">
      <stop offset="0" stop-color="#1b2143" stop-opacity="0.85"/>
      <stop offset="1" stop-color="#0b0f22" stop-opacity="0.85"/>
    </linearGradient>
    <linearGradient id="stroke" x1="0" y1="0" x2="1" y2="1">
      <stop offset="0" stop-color="#8b5cf6" stop-opacity="0.9"/>
      <stop offset="0.55" stop-color="#22d3ee" stop-opacity="0.8"/>
      <stop offset="1" stop-color="#fb7185" stop-opacity="0.65"/>
    </linearGradient>
    <radialGradient id="orbA" cx="30%" cy="30%" r="60%">
      <stop offset="0" stop-color="#8b5cf6" stop-opacity="0.8"/>
      <stop offset="1" stop-color="#8b5cf6" stop-opacity="0"/>
    </radialGradient>
    <radialGradient id="orbB" cx="35%" cy="35%" r="60%">
      <stop offset="0" stop-color="#22d3ee" stop-opacity="0.7"/>
      <stop offset="1" stop-color="#22d3ee" stop-opacity="0"/>
    </radialGradient>
    <radialGradient id="orbC" cx="45%" cy="45%" r="60%">
      <stop offset="0" stop-color="#fb7185" stop-opacity="0.55"/>
      <stop offset="1" stop-color="#fb7185" stop-opacity="0"/>
    </radialGradient>
    <filter id="shadow" x="-20%" y="-20%" width="140%" height="140%">
      <feDropShadow dx="0" dy="18" stdDeviation="18" flood-color="#000000" flood-opacity="0.45"/>
    </filter>
    <filter id="softGlow" x="-30%" y="-30%" width="160%" height="160%">
      <feGaussianBlur stdDeviation="14" result="blur"/>
      <feColorMatrix
        in="blur"
        type="matrix"
        values="
          1 0 0 0 0
          0 1 0 0 0
          0 0 1 0 0
          0 0 0 0.55 0"
        result="glow"/>
      <feMerge>
        <feMergeNode in="glow"/>
        <feMergeNode in="SourceGraphic"/>
      </feMerge>
    </filter>
  </defs>

  <!-- floating orbs -->
  <circle cx="170" cy="170" r="140" fill="url(#orbA)"/>
  <circle cx="820" cy="210" r="160" fill="url(#orbB)"/>
  <circle cx="520" cy="650" r="170" fill="url(#orbC)"/>

  <!-- main card -->
  <g filter="url(#shadow)">
    <rect x="90" y="92" width="780" height="520" rx="34" fill="url(#cardFill)" />
    <rect x="90.5" y="92.5" width="779" height="519" rx="34" fill="none" stroke="url(#stroke)" stroke-opacity="0.42" stroke-width="1.5"/>

    <!-- top pills -->
    <rect x="140" y="132" width="190" height="26" rx="13" fill="#ffffff" fill-opacity="0.06" stroke="#ffffff" stroke-opacity="0.08"/>
    <rect x="346" y="132" width="120" height="26" rx="13" fill="#ffffff" fill-opacity="0.05" stroke="#ffffff" stroke-opacity="0.08"/>
    <rect x="482" y="132" width="160" height="26" rx="13" fill="#ffffff" fill-opacity="0.05" stroke="#ffffff" stroke-opacity="0.08"/>

    <!-- URL input -->
    <g filter="url(#softGlow)">
      <rect x="140" y="186" width="680" height="86" rx="22" fill="#000000" fill-opacity="0.24" stroke="#ffffff" stroke-opacity="0.12"/>
      <rect x="170" y="212" width="42" height="42" rx="14" fill="#8b5cf6" fill-opacity="0.88"/>
      <path d="M186.2 234.8a6.2 6.2 0 0 1 0-8.8l1.9-1.9a6.2 6.2 0 1 1 8.8 8.8l-1.1 1.1"
            fill="none" stroke="#ffffff" stroke-width="2" stroke-linecap="round"/>
      <path d="M197.8 223.2a6.2 6.2 0 0 1 0 8.8l-1.9 1.9a6.2 6.2 0 1 1-8.8-8.8l1.1-1.1"
            fill="none" stroke="#ffffff" stroke-width="2" stroke-linecap="round"/>
      <rect x="230" y="214" width="420" height="14" rx="7" fill="#ffffff" fill-opacity="0.18"/>
      <rect x="230" y="238" width="280" height="14" rx="7" fill="#ffffff" fill-opacity="0.12"/>
      <rect x="700" y="212" width="94" height="42" rx="14" fill="#22d3ee" fill-opacity="0.82"/>
      <path d="M725 233l10 10 26-28" fill="none" stroke="#06101b" stroke-width="3" stroke-linecap="round" stroke-linejoin="round"/>
    </g>

    <!-- message card -->
    <g>
      <rect x="140" y="292" width="440" height="168" rx="22" fill="#ffffff" fill-opacity="0.04" stroke="#ffffff" stroke-opacity="0.1"/>
      <rect x="170" y="322" width="320" height="14" rx="7" fill="#ffffff" fill-opacity="0.16"/>
      <rect x="170" y="350" width="360" height="14" rx="7" fill="#ffffff" fill-opacity="0.12"/>
      <rect x="170" y="378" width="280" height="14" rx="7" fill="#ffffff" fill-opacity="0.10"/>
      <rect x="170" y="410" width="180" height="26" rx="13" fill="#fb7185" fill-opacity="0.75"/>
    </g>

    <!-- shield badge -->
    <g transform="translate(625 320)">
      <rect x="0" y="0" width="195" height="210" rx="26" fill="#000000" fill-opacity="0.22" stroke="#ffffff" stroke-opacity="0.12"/>
      <path d="M98 38l66 32v52c0 48-34 88-66 94-32-6-66-46-66-94V70l66-32z"
            fill="none" stroke="url(#stroke)" stroke-width="4" stroke-linejoin="round"/>
      <path d="M72 118l18 18 46-50" fill="none" stroke="#34d399" stroke-width="6" stroke-linecap="round" stroke-linejoin="round"/>
      <rect x="36" y="164" width="124" height="14" rx="7" fill="#ffffff" fill-opacity="0.14"/>
    </g>
  </g>
</svg>
